<?xml version="1.0" standalone="no"?>
<!DOCTYPE svg PUBLIC "-//W3C//DTD SVG 20010904//EN"
 "http://www.w3.org/TR/2001/REC-SVG-20010904/DTD/svg10.dtd">
<svg version="1.0" xmlns="http://www.w3.org/2000/svg"
 width="500.000000pt" height="500.000000pt" viewBox="0 0 500.000000 500.000000"
 preserveAspectRatio="xMidYMid meet">
<metadata>
Created by potrace 1.14, written by Peter Selinger 2001-2017
</metadata>
<g transform="translate(0.000000,500.000000) scale(0.100000,-0.100000)"
fill="#000000" stroke="none">
<path d="M2440 4893 c-69 -36 -72 -52 -68 -378 5 -394 -3 -382 264 -385 522
-5 923 -14 1174 -25 109 -5 155 -7 400 -20 58 -3 124 -8 148 -10 28 -3 42 -1
42 6 0 13 -145 157 -235 235 -239 204 -528 367 -820 463 -84 28 -163 52 -176
55 -13 2 -45 9 -72 15 -26 6 -64 14 -85 17 -20 3 -39 7 -42 9 -3 2 -37 6 -75
10 -39 4 -79 9 -90 12 -11 2 -90 6 -175 9 -137 5 -159 3 -190 -13z m335 -267
c44 -4 87 -9 95 -11 8 -2 33 -6 55 -10 22 -3 47 -7 55 -10 8 -2 26 -6 40 -9
118 -21 246 -65 390 -132 63 -30 106 -54 95 -54 -32 -1 -787 -2 -820 -1 l-30
1 0 115 c-1 95 2 115 15 118 8 2 17 3 20 1 3 -1 41 -5 85 -8z"/>
<path d="M1974 4612 c-44 -35 -53 -87 -26 -139 42 -77 169 -40 177 53 3 31 -1
42 -30 71 -38 38 -86 44 -121 15z"/>
<path d="M1453 4499 c-80 -40 -252 -171 -349 -265 -79 -77 -204 -216 -204
-226 0 -11 365 -5 381 6 9 6 51 43 94 81 64 58 189 157 231 183 25 16 55 70
56 103 2 47 -26 101 -62 122 -49 29 -84 28 -147 -4z"/>
<path d="M2505 3919 c-115 -11 -198 -20 -235 -24 -19 -3 -69 -7 -110 -10 -41
-3 -91 -7 -110 -10 -19 -2 -66 -7 -105 -10 -38 -3 -97 -8 -130 -11 -95 -9
-145 -13 -225 -19 -41 -3 -91 -8 -110 -10 -19 -2 -69 -7 -110 -10 -41 -3 -102
-8 -135 -10 -33 -3 -91 -7 -130 -10 -38 -3 -97 -8 -130 -11 -33 -3 -80 -7
-105 -9 -241 -21 -287 -25 -340 -31 -25 -3 -65 -7 -90 -9 -104 -11 -207 -64
-292 -150 -89 -91 -170 -304 -140 -370 12 -25 12 -25 133 -23 135 2 117 -7
182 93 64 98 125 126 302 141 44 3 96 8 115 9 19 2 78 7 130 10 52 4 102 9
111 10 9 2 65 6 125 10 60 4 120 8 134 10 14 2 66 7 115 10 50 4 106 8 125 10
19 2 78 6 130 10 52 4 111 8 130 10 19 2 78 6 130 10 52 3 111 8 130 10 19 2
78 7 130 10 52 3 113 8 135 10 211 21 317 25 370 13 104 -23 211 -98 261 -184
55 -94 55 -95 55 -752 1 -872 0 -937 -18 -994 -38 -131 -130 -225 -254 -263
-51 -15 -164 -20 -249 -11 -19 2 -88 7 -153 11 -64 3 -127 8 -140 10 -12 2
-67 7 -122 10 -55 3 -116 8 -135 9 -19 2 -78 7 -130 10 -52 4 -113 9 -135 11
-39 4 -97 8 -295 20 -52 4 -111 8 -130 10 -20 2 -83 6 -140 10 -58 3 -132 8
-165 11 -33 2 -103 6 -155 9 -267 14 -332 37 -387 133 -39 69 -82 111 -126
123 -47 12 -187 10 -204 -4 -17 -13 -16 -60 2 -130 60 -231 238 -398 450 -421
33 -4 74 -9 90 -11 41 -5 227 -21 365 -30 41 -3 100 -7 130 -10 30 -2 91 -7
135 -10 44 -3 96 -8 115 -10 19 -2 78 -7 130 -10 52 -4 111 -8 130 -10 19 -2
80 -6 135 -10 55 -3 111 -8 125 -10 14 -2 66 -6 115 -10 50 -3 106 -8 125 -10
19 -2 73 -7 120 -10 47 -3 101 -8 120 -10 155 -17 405 -25 470 -13 164 28 359
184 438 349 42 88 57 140 68 230 9 71 9 1645 0 1729 -13 122 -68 254 -145 350
-150 186 -353 264 -626 239z"/>
<path d="M3655 3854 c9 -22 26 -61 37 -89 32 -82 65 -132 103 -154 31 -18 57
-22 178 -26 78 -3 185 -7 237 -10 218 -10 479 -19 527 -17 l33 2 -56 93 c-119
195 -116 193 -259 201 -49 3 -130 8 -180 11 -114 7 -234 12 -458 21 l-178 6
16 -38z"/>
<path d="M3809 3312 c-73 -37 -101 -131 -59 -200 35 -56 52 -59 425 -66 187
-3 367 -8 400 -10 33 -2 118 -5 189 -7 l129 -2 24 27 c58 68 -1 220 -95 246
-37 9 -250 17 -733 25 -217 3 -250 2 -280 -13z"/>
<path d="M2128 3198 c-160 -21 -298 -114 -381 -258 -37 -64 -79 -190 -64 -191
52 -4 236 -1 252 4 11 4 31 27 44 52 24 45 62 80 116 107 105 51 269 -24 336
-153 19 -38 23 -65 28 -204 5 -130 9 -166 24 -188 55 -84 193 -70 225 23 9 25
9 316 0 350 -3 8 -8 31 -12 50 -17 72 -89 193 -156 260 -118 118 -260 169
-412 148z"/>
<path d="M770 3119 c-48 -21 -70 -58 -70 -114 0 -54 19 -96 55 -119 39 -26
330 -28 368 -3 75 49 82 161 15 219 -30 26 -46 29 -198 31 -105 2 -142 -1
-170 -14z"/>
<path d="M3825 2669 c-108 -31 -128 -193 -32 -263 32 -23 60 -25 630 -25 l299
-1 -6 -27 c-3 -16 -8 -46 -12 -68 -3 -22 -7 -47 -9 -55 -2 -8 -6 -28 -9 -45
-2 -16 -10 -65 -17 -107 -7 -47 -17 -79 -26 -82 -7 -3 -190 -6 -406 -7 -438
-1 -450 -3 -487 -65 -39 -68 -16 -160 50 -198 33 -19 54 -20 507 -21 490 -1
520 1 563 40 11 10 26 39 35 65 17 51 18 57 40 180 8 47 17 97 20 112 17 89
30 255 30 378 0 117 -11 146 -69 178 -28 15 -82 17 -551 18 -286 1 -534 -2
-550 -7z"/>
<path d="M1672 2208 c13 -59 55 -166 89 -225 37 -65 121 -151 175 -178 21 -11
41 -22 44 -25 17 -19 144 -45 220 -45 76 0 91 3 139 30 64 35 99 82 96 128 -2
17 -3 39 -4 47 -3 45 -84 95 -134 84 -70 -16 -149 -16 -191 0 -56 21 -119 89
-151 161 -18 43 -29 55 -47 56 -13 1 -73 2 -134 3 l-111 1 9 -37z"/>
<path d="M788 2102 c-16 -2 -28 -7 -28 -12 0 -5 -8 -11 -18 -15 -41 -12 -57
-122 -26 -175 34 -56 64 -64 230 -64 126 0 156 3 178 17 57 38 76 107 46 174
-29 65 -59 76 -220 77 -74 1 -147 0 -162 -2z"/>
<path d="M3797 1336 c-46 -23 -68 -56 -123 -187 l-33 -79 257 0 257 -1 -55
-50 c-30 -28 -73 -67 -95 -87 -21 -20 -59 -54 -83 -75 l-44 -37 -707 2 c-678
2 -708 1 -739 -17 -59 -35 -62 -53 -59 -351 3 -298 7 -318 68 -350 26 -13 54
-15 168 -10 75 4 154 8 176 11 22 2 67 7 100 10 332 32 698 163 983 351 243
160 519 425 686 657 116 163 139 219 91 231 -13 3 -201 6 -416 5 -376 -2 -392
-3 -432 -23z m-372 -794 c-60 -37 -299 -118 -400 -136 -51 -10 -149 -27 -173
-31 -13 -2 -53 -7 -90 -11 -37 -3 -75 -8 -84 -10 -10 -1 -19 3 -19 9 -4 32 -5
183 -2 190 3 4 183 7 401 7 388 0 396 0 367 -18z"/>
<path d="M900 950 c-12 -7 4 -29 75 -100 110 -111 206 -188 377 -302 153 -102
182 -111 237 -75 68 45 92 146 46 198 -22 23 -312 231 -337 241 -10 4 -46 10
-81 13 -34 4 -75 8 -92 10 -16 2 -68 7 -115 11 -47 3 -87 8 -90 10 -3 1 -12
-1 -20 -6z"/>
<path d="M1965 476 c-65 -66 -31 -166 58 -166 49 0 73 13 93 51 46 90 -80 186
-151 115z"/>
</g>
</svg>
