<?xml version="1.0" encoding="utf-8"?>
<!-- Generator: Adobe Illustrator 26.1.0, SVG Export Plug-In . SVG Version: 6.00 Build 0)  -->
<svg version="1.1" id="OBJECTS" xmlns="http://www.w3.org/2000/svg" xmlns:xlink="http://www.w3.org/1999/xlink" x="0px" y="0px"
	 viewBox="0 0 167.05 147.64" style="enable-background:new 0 0 167.05 147.64;" xml:space="preserve">
<style type="text/css">
	.st0{fill:none;stroke:#FFFFFF;stroke-width:1.3887;stroke-miterlimit:10;}
	.st1{fill:url(#SVGID_1_);}
	.st2{clip-path:url(#SVGID_00000006706964987142849200000010890016248275046569_);}
	.st3{fill:#EA48AA;}
	.st4{fill:url(#SVGID_00000109732743753808263370000009479936446118550173_);}
	.st5{fill:url(#SVGID_00000168078102481639813620000001783280170314439814_);}
	.st6{fill:url(#SVGID_00000183933698517911492360000011176413828703731608_);}
	.st7{fill:#1B1447;}
	.st8{fill:url(#SVGID_00000046297081650617710220000009108914612537512869_);}
	.st9{fill:url(#SVGID_00000161598096436628786350000018088230019652143003_);}
	.st10{fill:url(#SVGID_00000088119477808354060650000006149596828885553571_);}
	.st11{fill:url(#SVGID_00000124847398829843481790000009116550977853941918_);}
	.st12{fill:url(#SVGID_00000034072515626201532210000005641342798965246390_);}
	.st13{fill:url(#SVGID_00000126307736168952915790000015620179031878622856_);}
</style>
<g>
	<path class="st0" d="M64.01,0.7c9.52,0.23,16.43,33.16,15.44,73.55c-0.99,40.39-9.51,72.94-19.03,72.7"/>
	<g>
		<g>
			
				<linearGradient id="SVGID_1_" gradientUnits="userSpaceOnUse" x1="-22.9343" y1="35.1116" x2="36.1618" y2="35.1116" gradientTransform="matrix(-1 0 0 -1 37.4881 108.1795)">
				<stop  offset="0" style="stop-color:#6A2152"/>
				<stop  offset="1" style="stop-color:#EA48AA"/>
			</linearGradient>
			<path class="st1" d="M45.18,112.07c-3.45,7.66-8.77,14.86-16.35,18.49c-7.58,3.62-17.66,2.77-23.19-3.55
				c-5.01-5.72-5.23-14.39-2.81-21.61c2.42-7.21,7.05-13.42,11.1-19.86c4.05-6.44,7.67-13.56,7.64-21.17
				c-0.03-8.84-4.95-16.85-7.23-25.39c-1.57-5.89-1.82-12.44,1.02-17.83c2.84-5.39,9.39-9.09,15.2-7.24
				c4.35,1.39,7.34,5.41,9.25,9.55c1.91,4.15,3.05,8.65,5.3,12.62c4.97,8.73,15.34,15.24,15.31,25.28
				c-0.02,8.01-5.75,15.8-7.72,23.54C50.35,94.11,49.13,103.31,45.18,112.07z"/>
			<g>
				<defs>
					<path id="SVGID_00000034079609520404303750000003373262444020040122_" d="M45.18,112.07c-3.45,7.66-8.77,14.86-16.35,18.49
						c-7.58,3.62-17.66,2.77-23.19-3.55c-5.01-5.72-5.23-14.39-2.81-21.61c2.42-7.21,7.05-13.42,11.1-19.86
						c4.05-6.44,7.67-13.56,7.64-21.17c-0.03-8.84-4.95-16.85-7.23-25.39c-1.57-5.89-1.82-12.44,1.02-17.83
						c2.84-5.39,9.39-9.09,15.2-7.24c4.35,1.39,7.34,5.41,9.25,9.55c1.91,4.15,3.05,8.65,5.3,12.62
						c4.97,8.73,15.34,15.24,15.31,25.28c-0.02,8.01-5.75,15.8-7.72,23.54C50.35,94.11,49.13,103.31,45.18,112.07z"/>
				</defs>
				<clipPath id="SVGID_00000119828211692737372420000017880344029658632336_">
					<use xlink:href="#SVGID_00000034079609520404303750000003373262444020040122_"  style="overflow:visible;"/>
				</clipPath>
				<g style="clip-path:url(#SVGID_00000119828211692737372420000017880344029658632336_);">
					<path class="st3" d="M20.7,132.06c-0.18,6.18,1.44,12.4,5.04,17.47c0.69,0.96,2.2-0.07,1.52-1.05
						c-6.32-9.03-5.7-21.24-0.69-30.7c5.92-11.16,16.97-18.52,28.32-23.33c6.72-2.84,13.74-4.74,20.58-7.23
						c1.12-0.41,0.52-1.98-0.6-1.71c-6.61,1.58-13.15,3.78-19.44,6.37c-6.13,2.52-12.08,5.61-17.36,9.65
						C28.4,108.93,21.07,119.58,20.7,132.06z"/>
					<path class="st3" d="M13.38,121.82c-1.67,7.3-1.74,14.87,0.28,22.1c0.23,0.81,1.41,0.37,1.22-0.42
						c-3.07-13.06,0.86-26.72,7.82-37.86c7.92-12.67,19.67-22.46,31.06-31.87c6.58-5.44,13.15-10.89,19.02-17.12
						c0.98-1.04-0.61-2.87-1.71-1.89c-11.55,10.36-24.1,19.61-35.16,30.51C25.62,95.4,16.65,107.52,13.38,121.82z"/>
					<path class="st3" d="M7.87,1.26c4.91,12.58,16.12,21.22,22.38,33.01c3.27,6.16,4.84,13.14,4.14,20.12
						c-0.72,7.13-3.5,13.93-8.3,19.29c-5.18,5.78-12.35,9.73-20.03,10.9c-0.96,0.15-0.89,1.65,0.1,1.53
						C20.72,84.33,32.88,73.45,36,59.09c1.56-7.2,0.67-14.68-2.37-21.37c-2.85-6.28-7.06-11.85-11.23-17.3
						c-4.79-6.26-9.59-12.5-12.79-19.75C9.14-0.41,7.43,0.15,7.87,1.26z"/>
					<path class="st3" d="M11.61,22.18c1.02,1.17,2.25,2.16,3.3,3.31c1.11,1.21,2.1,2.52,2.97,3.9c1.71,2.69,2.96,5.65,3.68,8.71
						c1.45,6.19,0.46,12.62-2.53,17.93c-1.75,3.11-4.1,5.81-7,7.88c-0.63,0.45,0.04,1.52,0.7,1.08c5.53-3.66,9.4-9.35,10.81-15.93
						c1.4-6.52,0.1-13.51-3.32-19.52c-0.95-1.67-2.06-3.24-3.31-4.71c-1.24-1.46-2.67-3.03-4.38-3.93
						C11.64,20.44,11,21.48,11.61,22.18z"/>
				</g>
			</g>
		</g>
		
			<linearGradient id="SVGID_00000069388626921644229790000000196084963656214423_" gradientUnits="userSpaceOnUse" x1="25.7075" y1="99.5859" x2="36.7361" y2="99.5859" gradientTransform="matrix(-1 0 0 -1 37.4881 108.1795)">
			<stop  offset="0" style="stop-color:#6A2152"/>
			<stop  offset="1" style="stop-color:#EA48AA"/>
		</linearGradient>
		<path style="fill:url(#SVGID_00000069388626921644229790000000196084963656214423_);" d="M9.1,13.28
			c2.06-1.35,3.15-4.07,2.49-6.44c-0.66-2.37-3.08-4.16-5.54-3.97c-3.88,0.29-5.83,4.39-5.18,7.88C1.58,14.52,6.17,15.2,9.1,13.28z"
			/>
		
			<linearGradient id="SVGID_00000101796348623864499030000009301179138703477910_" gradientUnits="userSpaceOnUse" x1="32.811" y1="88.2057" x2="37.4881" y2="88.2057" gradientTransform="matrix(-1 0 0 -1 37.4881 108.1795)">
			<stop  offset="0" style="stop-color:#6A2152"/>
			<stop  offset="1" style="stop-color:#EA48AA"/>
		</linearGradient>
		<path style="fill:url(#SVGID_00000101796348623864499030000009301179138703477910_);" d="M3.54,21.96
			c0.8-0.52,1.27-1.53,1.11-2.47c-0.17-0.99-1.05-1.82-2.06-1.92c-1-0.1-2.03,0.53-2.4,1.47C-0.66,21.2,1.49,23.31,3.54,21.96z"/>
	</g>
	<path class="st0" d="M60.42,146.95c-9.52-0.23-16.43-33.16-15.44-73.55c0.99-40.39,9.51-72.94,19.03-72.7"/>
	<g>
		
			<linearGradient id="SVGID_00000111182948635331483770000015910406878097803704_" gradientUnits="userSpaceOnUse" x1="89.0443" y1="114.9542" x2="87.4649" y2="-5.5959">
			<stop  offset="0" style="stop-color:#E58E97"/>
			<stop  offset="1" style="stop-color:#F4BBA7"/>
		</linearGradient>
		<path style="fill:url(#SVGID_00000111182948635331483770000015910406878097803704_);" d="M131.54,63.53
			c-16.09,3.96-26.49,16.06-49.23,26.56c-4.39,2.02-8.88,3.84-13.41,5.28c-2.58,0.82-5.18,1.52-7.78,2.06c-2.84,0.6-5.67,1-8.5,1.19
			c-1.87,0.14-4.81-0.2-6.53-0.52c0,0-0.76-9.57-0.62-20.54c0.02-1.78,0.62-14.54,0.62-14.54l13.34-1.52l0.78-0.14l0.67-0.11
			c0,0,0.72-0.08,2.08-0.27c7.01-0.94,30.99-4.43,56.16-10.99L131.54,63.53z"/>
		<path class="st7" d="M61.12,97.43c-2.84,0.6-5.67,1-8.5,1.19c-1.87,0.14-4.81-0.2-6.53-0.52c0,0-0.68-8.96-0.63-19.36
			c0.03-7.16,0.64-15.71,0.64-15.71l13.34-1.52l0.78-0.14c-0.66,2.21-1.34,4.41-1.65,6.57c-0.94,6.31-0.93,12.78,0.1,19.08
			C59.22,90.55,60.09,94.01,61.12,97.43z"/>
		<g>
			<g>
				<g>
					
						<linearGradient id="SVGID_00000007406725426025435750000014501010287725636260_" gradientUnits="userSpaceOnUse" x1="128.6525" y1="114.4612" x2="127.0725" y2="-6.1372">
						<stop  offset="0" style="stop-color:#E58E97"/>
						<stop  offset="1" style="stop-color:#F4BBA7"/>
					</linearGradient>
					<path style="fill:url(#SVGID_00000007406725426025435750000014501010287725636260_);" d="M118.38,51.71l6.08-24.56
						c0.56-2.36,2.65-4.03,5.07-4.08l7.38-0.14L118.38,51.71z"/>
					<path class="st7" d="M121.48,42.07c1.3-3.21,2.34-6.51,3.42-9.8c0.95-2.9,1.85-6.69,4.28-8.74c0.16-0.14,0.43-0.01,0.45,0.2
						c0.26,3.17-1.82,6.51-3.22,9.22c-1.58,3.07-3.19,6.12-4.56,9.29C121.75,42.48,121.38,42.32,121.48,42.07z"/>
					
						<linearGradient id="SVGID_00000178183961835070563760000007526808901580814266_" gradientUnits="userSpaceOnUse" x1="131.1897" y1="114.4276" x2="129.6098" y2="-6.1706">
						<stop  offset="0" style="stop-color:#E58E97"/>
						<stop  offset="1" style="stop-color:#F4BBA7"/>
					</linearGradient>
					<path style="fill:url(#SVGID_00000178183961835070563760000007526808901580814266_);" d="M119.11,50l13.94-33.58l15.88,30.94
						c-5.87,10.19-17.52,23.92-37.05,13.23L119.11,50z"/>
					
						<linearGradient id="SVGID_00000170236248356255515630000017764102104703105970_" gradientUnits="userSpaceOnUse" x1="151.6348" y1="114.16" x2="150.0548" y2="-6.4383">
						<stop  offset="0" style="stop-color:#E58E97"/>
						<stop  offset="1" style="stop-color:#F4BBA7"/>
					</linearGradient>
					<path style="fill:url(#SVGID_00000170236248356255515630000017764102104703105970_);" d="M134.83,32.37l20.61-12.22l10.08,8.14
						c0.82,0.72,0.98,1.93,0.38,2.85l0,0c-0.64,0.97-1.92,1.27-2.93,0.68L155,28.16l-4.61,4.09l-6.3,12.31L134.83,32.37z"/>
					
						<linearGradient id="SVGID_00000062872751535728096020000003507092966360069046_" gradientUnits="userSpaceOnUse" x1="154.4574" y1="114.1228" x2="152.8775" y2="-6.4753">
						<stop  offset="0" style="stop-color:#E58E97"/>
						<stop  offset="1" style="stop-color:#F4BBA7"/>
					</linearGradient>
					<path style="fill:url(#SVGID_00000062872751535728096020000003507092966360069046_);" d="M148.92,47.36l5.61-8.58l5.32-1.96
						l3.48,4.8c0.59,0.81,1.67,1.08,2.57,0.64l0,0c0.98-0.48,1.42-1.64,0.99-2.64l-3.85-8.48L153,30.66l-8.5,4.29l-4.57,5.83
						L148.92,47.36z"/>
					
						<linearGradient id="SVGID_00000152245620100708111210000013651405333457567394_" gradientUnits="userSpaceOnUse" x1="147.176" y1="114.218" x2="145.596" y2="-6.3797">
						<stop  offset="0" style="stop-color:#E58E97"/>
						<stop  offset="1" style="stop-color:#F4BBA7"/>
					</linearGradient>
					<polygon style="fill:url(#SVGID_00000152245620100708111210000013651405333457567394_);" points="133.05,16.42 139.7,9.89 
						142.83,15.86 151.08,16.63 158.83,22.88 137.86,33 					"/>
					
						<linearGradient id="SVGID_00000052075749931597786580000012646484866254637699_" gradientUnits="userSpaceOnUse" x1="148.6223" y1="114.1998" x2="147.0424" y2="-6.3988">
						<stop  offset="0" style="stop-color:#E58E97"/>
						<stop  offset="1" style="stop-color:#F4BBA7"/>
					</linearGradient>
					<path style="fill:url(#SVGID_00000052075749931597786580000012646484866254637699_);" d="M139.7,9.89l10.7-7.74
						c1.1-0.79,2.61-0.67,3.56,0.3l0,0c1.01,1.02,1.05,2.65,0.1,3.73l-13.75,12.16L139.7,9.89z"/>
					<g>
						<path class="st7" d="M145.77,17.24c-0.62,0.27-1.21,0.57-1.85,0.81c-0.66,0.25-1.27,0.55-1.91,0.85
							c-1.24,0.59-2.54,1.06-3.86,1.43c-0.02,0.01-0.04,0-0.06,0.01c0,0,0,0,0,0c-0.79,1.27-1.62,2.5-2.39,3.78
							c-0.77,1.27-1.45,2.6-2.1,3.94c-0.17,0.35-0.67,0.12-0.55-0.25c1-2.88,2.25-5.8,3.98-8.32c0.07-0.11,0.19-0.17,0.31-0.2
							c0.07-0.1,0.16-0.19,0.29-0.26c1.26-0.63,2.6-1.12,3.98-1.42c0.65-0.14,1.3-0.26,1.95-0.43c0.34-0.09,0.68-0.2,1.03-0.26
							c0.35-0.06,0.7-0.08,1.05-0.15C145.94,16.71,146.02,17.13,145.77,17.24z"/>
						<path class="st7" d="M154.2,21.19c-1.7,0.67-3.36,1.42-5.02,2.19c-0.81,0.38-1.64,0.73-2.46,1.11
							c-0.41,0.19-0.82,0.37-1.23,0.56c-0.32,0.15-0.63,0.33-0.96,0.4c-0.17,0.28-0.38,0.55-0.55,0.84
							c-0.17,0.29-0.34,0.57-0.5,0.86c-0.37,0.65-0.73,1.31-1.07,1.97c-0.33,0.64-0.68,1.27-1.03,1.9
							c-0.37,0.66-0.78,1.28-1.13,1.95c-0.12,0.23-0.44,0.08-0.36-0.16c0.24-0.74,0.44-1.5,0.71-2.23c0.25-0.68,0.54-1.33,0.85-1.98
							c0.31-0.65,0.64-1.29,0.97-1.92c0.36-0.68,0.68-1.41,1.08-2.05c0.02-0.03,0.05-0.05,0.08-0.08c0-0.01,0-0.02,0.01-0.03
							c0.25-0.47,0.7-0.64,1.16-0.89c0.4-0.21,0.8-0.42,1.21-0.61c0.87-0.4,1.74-0.79,2.64-1.1c1.76-0.6,3.6-1.05,5.43-1.39
							C154.42,20.45,154.55,21.05,154.2,21.19z"/>
					</g>
				</g>
			</g>
		</g>
	</g>
</g>
</svg>
