<?xml version="1.0" encoding="utf-8"?>
<!-- Generator: Adobe Illustrator 26.1.0, SVG Export Plug-In . SVG Version: 6.00 Build 0)  -->
<svg version="1.1" id="OBJECTS" xmlns="http://www.w3.org/2000/svg" xmlns:xlink="http://www.w3.org/1999/xlink" x="0px" y="0px"
	 viewBox="0 0 263.13 309.86" style="enable-background:new 0 0 263.13 309.86;" xml:space="preserve">
<style type="text/css">
	.st0{fill:#FFFFFF;}
	.st1{clip-path:url(#SVGID_00000018939482681772947520000012394933513671012260_);}
	.st2{fill:#DADADD;}
	.st3{opacity:0.29;fill:#FFFFFF;}
	.st4{fill:url(#SVGID_00000113318429263594640550000001488050409138387886_);}
	.st5{fill:url(#SVGID_00000101819505250818551530000010472739698952270731_);}
	.st6{fill:url(#SVGID_00000116939232861733977290000006746862578842399133_);}
	.st7{fill:url(#SVGID_00000124120804223583211710000007836144291109555366_);}
	.st8{fill:url(#SVGID_00000132088612185971881020000011745715474216447167_);}
	.st9{fill:url(#SVGID_00000165235254122470351930000015998874425417931678_);}
	.st10{fill:url(#SVGID_00000039093033230479503690000017557260351195701134_);}
	.st11{fill:url(#SVGID_00000059999854771561337410000014425255317053335724_);}
	.st12{fill:url(#SVGID_00000140735679319369878580000001899583259978707094_);}
	.st13{fill:#1B1447;}
	.st14{fill:url(#SVGID_00000005974749502957280670000003632307369562852480_);}
	.st15{fill:url(#SVGID_00000136378585820049484450000003289212558589633702_);}
	.st16{fill:url(#SVGID_00000179632741185034438490000002576959194643943862_);}
	.st17{fill:url(#SVGID_00000038391893456945469380000017154826026944910720_);}
	.st18{fill:url(#SVGID_00000008127915057037282220000010945524140467933078_);}
	.st19{fill:url(#SVGID_00000016785793811807220540000008420084525528800159_);}
	.st20{fill:url(#SVGID_00000021841594905623707020000003035388714984157116_);}
	.st21{fill:url(#SVGID_00000006702307753011405140000017808117604913128072_);}
	.st22{fill:#1C4847;}
	.st23{fill:url(#SVGID_00000127765893140014524890000002490155046197421214_);}
	.st24{fill:url(#SVGID_00000181774359693108217880000004411848059796834184_);}
	.st25{fill:url(#SVGID_00000083790184436925358750000001522719241983837107_);}
</style>
<g>
	<g>
		<path class="st0" d="M232.18,1c12.89,0,25.95,68.33,29.21,153.03c3.27,85.01-4.57,154.33-17.51,154.83c-0.05,0-0.09,0-0.14,0
			c-12.89,0-25.95-68.33-29.21-153.03C211.26,70.82,219.1,1.5,232.04,1C232.08,1,232.13,1,232.18,1 M232.18,0c-0.06,0-0.12,0-0.18,0
			c-8.73,0.34-13.4,25.53-15.79,46.61c-3.31,29.29-4.26,68.09-2.68,109.26c1.58,41,5.49,79.51,11.01,108.43
			c3.97,20.79,10.52,45.56,19.2,45.56c0.06,0,0.12,0,0.18,0c8.73-0.34,13.4-25.53,15.79-46.61c3.31-29.29,4.26-68.09,2.68-109.26
			c-1.58-41-5.49-79.51-11.01-108.43C247.41,24.78,240.86,0,232.18,0L232.18,0z"/>
	</g>
	<g>
		<g>
			<defs>
				<path id="SVGID_1_" d="M243.88,308.86c12.94-0.5,20.78-69.82,17.51-154.83C258.12,69.02,244.98,0.5,232.04,1L0,34.37
					l57.46,174.61L243.88,308.86z"/>
			</defs>
			<clipPath id="SVGID_00000119096993888488296240000000248215521208034222_">
				<use xlink:href="#SVGID_1_"  style="overflow:visible;"/>
			</clipPath>
			<g style="clip-path:url(#SVGID_00000119096993888488296240000000248215521208034222_);">
				<g>
					<path class="st0" d="M142.61,99.83l7.76-0.86c4.89-0.54,8.41-4.94,7.87-9.83l-1.09-9.9c-0.54-4.89-4.94-8.41-9.83-7.87
						l-7.76,0.86c-4.89,0.54-8.41,4.94-7.87,9.83l1.09,9.9C133.33,96.84,137.72,100.37,142.61,99.83z"/>
					<g>
						<path class="st2" d="M145.83,98.74c-3.1,0-5.7-2.33-6.04-5.42l-1.56-14.12c-0.18-1.62,0.28-3.2,1.3-4.47
							c1.02-1.27,2.47-2.07,4.08-2.24l5.91-0.65c0.23-0.02,0.45-0.04,0.68-0.04c3.1,0,5.7,2.33,6.04,5.42l1.56,14.12
							c0.18,1.62-0.28,3.2-1.3,4.47c-1.02,1.27-2.47,2.06-4.08,2.24l-5.91,0.65C146.28,98.73,146.05,98.74,145.83,98.74
							L145.83,98.74z"/>
						<path class="st3" d="M150.2,72.49c2.75,0,5.05,2.06,5.35,4.8l1.56,14.12c0.16,1.43-0.25,2.84-1.15,3.96
							c-0.9,1.12-2.18,1.83-3.62,1.99l-5.91,0.65c-0.2,0.02-0.4,0.03-0.6,0.03c-2.75,0-5.05-2.06-5.35-4.8l-1.56-14.12
							c-0.33-2.95,1.81-5.62,4.77-5.95l5.91-0.65C149.8,72.5,150,72.49,150.2,72.49 M150.2,71.1c-0.25,0-0.5,0.01-0.75,0.04
							l-5.91,0.65c-3.72,0.41-6.41,3.76-5.99,7.48l1.56,14.12c0.38,3.47,3.32,6.04,6.73,6.04c0.25,0,0.5-0.01,0.75-0.04l5.91-0.65
							c3.72-0.41,6.41-3.76,5.99-7.48l-1.56-14.12C156.54,73.67,153.61,71.1,150.2,71.1L150.2,71.1z"/>
					</g>
				</g>
				
					<linearGradient id="SVGID_00000025424747772532196830000003827440230818993313_" gradientUnits="userSpaceOnUse" x1="44.3812" y1="91.3421" x2="57.2892" y2="91.3421">
					<stop  offset="0" style="stop-color:#6A2152"/>
					<stop  offset="1" style="stop-color:#EA48AA"/>
				</linearGradient>
				<path style="fill:url(#SVGID_00000025424747772532196830000003827440230818993313_);" d="M46.98,95.94l0.96,0.66
					c2.72,1.86,6.44,1.17,8.3-1.55l0,0c1.86-2.72,1.17-6.44-1.55-8.3l-0.96-0.66c-2.72-1.86-6.44-1.17-8.3,1.55l0,0
					C43.56,90.36,44.26,94.08,46.98,95.94z"/>
				
					<linearGradient id="SVGID_00000152245995045832981920000007524836010793236368_" gradientUnits="userSpaceOnUse" x1="107.3489" y1="163.9005" x2="50.0142" y2="101.068">
					<stop  offset="0" style="stop-color:#E58E97"/>
					<stop  offset="1" style="stop-color:#F4BBA7"/>
				</linearGradient>
				<path style="fill:url(#SVGID_00000152245995045832981920000007524836010793236368_);" d="M33.14,87.69
					c7.23,9.1,19.18,47.12,41.79,63.37c1.27,0.91,2.6,1.63,3.94,2.18c11.62,4.63,25.26-4.1,25.03-17.58l-16.79-14.83L49.28,87.44
					L33.14,87.69z"/>
				<g>
					<g>
						
							<linearGradient id="SVGID_00000158001302346035475660000004958730948362856856_" gradientUnits="userSpaceOnUse" x1="44.0338" y1="92.4484" x2="33.379" y2="46.9878">
							<stop  offset="0" style="stop-color:#E58E97"/>
							<stop  offset="1" style="stop-color:#F4BBA7"/>
						</linearGradient>
						<path style="fill:url(#SVGID_00000158001302346035475660000004958730948362856856_);" d="M48.18,94.68l-8,7.34
							C25.69,88.33,29.05,73.48,27.41,65.66l23.49,2.44L48.18,94.68z"/>
						
							<linearGradient id="SVGID_00000106111556967294378520000008864127451883269532_" gradientUnits="userSpaceOnUse" x1="51.2047" y1="90.7678" x2="40.5498" y2="45.307">
							<stop  offset="0" style="stop-color:#E58E97"/>
							<stop  offset="1" style="stop-color:#F4BBA7"/>
						</linearGradient>
						<path style="fill:url(#SVGID_00000106111556967294378520000008864127451883269532_);" d="M40.1,39.11
							c1.6-0.92,3.64-0.26,4.4,1.42l6.58,14.45l1.19,16.14l-13.44,2.17l3.51-19.57l-3.65-10.9C38.22,41.4,38.81,39.85,40.1,39.11z"
							/>
						
							<linearGradient id="SVGID_00000040561153355233708230000001348843200101948583_" gradientUnits="userSpaceOnUse" x1="40.5884" y1="93.256" x2="29.9335" y2="47.7951">
							<stop  offset="0" style="stop-color:#E58E97"/>
							<stop  offset="1" style="stop-color:#F4BBA7"/>
						</linearGradient>
						<path style="fill:url(#SVGID_00000040561153355233708230000001348843200101948583_);" d="M25.36,45.58
							c1.4-1.2,3.53-0.93,4.59,0.58l9.12,13l4.14,15.65L30.4,79.41l-0.15-19.88l-5.59-10.05C23.93,48.17,24.23,46.54,25.36,45.58z"
							/>
						
							<linearGradient id="SVGID_00000168823517798227532720000005080949209258804157_" gradientUnits="userSpaceOnUse" x1="47.8942" y1="91.5437" x2="37.2394" y2="46.083">
							<stop  offset="0" style="stop-color:#E58E97"/>
							<stop  offset="1" style="stop-color:#F4BBA7"/>
						</linearGradient>
						<path style="fill:url(#SVGID_00000168823517798227532720000005080949209258804157_);" d="M30.13,42.9
							c1.28-1.33,3.42-1.26,4.62,0.13L45.1,55.08l5.64,15.17l-12.31,5.83L36.35,56.3l-6.54-9.46C28.96,45.62,29.1,43.97,30.13,42.9z
							"/>
						
							<linearGradient id="SVGID_00000160161849802990112410000008558223242368670608_" gradientUnits="userSpaceOnUse" x1="36.4306" y1="94.2304" x2="25.7757" y2="48.7697">
							<stop  offset="0" style="stop-color:#E58E97"/>
							<stop  offset="1" style="stop-color:#F4BBA7"/>
						</linearGradient>
						<path style="fill:url(#SVGID_00000160161849802990112410000008558223242368670608_);" d="M18.56,53.46
							c1.12-1.46,3.25-1.65,4.61-0.4l11.66,10.78l7.35,14.42l-11.55,7.21l-4.34-19.41l-7.59-8.64
							C17.71,56.3,17.66,54.65,18.56,53.46z"/>
						<g>
							<g>
								
									<linearGradient id="SVGID_00000031186480124132490200000010909938851442744998_" gradientUnits="userSpaceOnUse" x1="37.5575" y1="76.4442" x2="51.8528" y2="76.7994">
									<stop  offset="0" style="stop-color:#E58E97"/>
									<stop  offset="1" style="stop-color:#F4BBA7"/>
								</linearGradient>
								<path style="fill:url(#SVGID_00000031186480124132490200000010909938851442744998_);" d="M48.18,94.68l4.1-23.56l-7.6-12.46
									l-4.99,7.2l1.48,5.75C41.17,71.6,27.83,85.91,48.18,94.68z"/>
								
									<linearGradient id="SVGID_00000023959624229792475680000012447225355105467017_" gradientUnits="userSpaceOnUse" x1="37.9188" y1="61.8997" x2="52.2141" y2="62.2548">
									<stop  offset="0" style="stop-color:#E58E97"/>
									<stop  offset="1" style="stop-color:#F4BBA7"/>
								</linearGradient>
								<path style="fill:url(#SVGID_00000023959624229792475680000012447225355105467017_);" d="M44.68,58.65l-8.44-0.7
									c-1.83-0.15-3.45,1.2-3.63,3.03v0c-0.16,1.63,0.87,3.13,2.45,3.57l4.63,1.29L44.68,58.65z"/>
							</g>
						</g>
					</g>
					<path class="st13" d="M49.22,64.73c-0.42-0.63-0.8-1.22-1.11-1.93c-0.29-0.67-0.56-1.35-0.92-1.99
						c-0.36-0.64-0.79-1.24-1.43-1.62c-0.79-0.48-1.71-0.65-2.61-0.8c-1.85-0.31-3.77-0.66-5.65-0.73c-1.6-0.06-3.16,0.45-3.87,2.01
						c-0.18,0.4,0.39,0.76,0.66,0.39c0.99-1.38,2.92-1.08,4.32-0.81c1.67,0.31,3.37,0.6,5.03,0.96c0.7,0.15,1.44,0.42,1.94,0.96
						c0.42,0.45,0.65,1.09,0.9,1.65c0.49,1.09,1.08,2.33,2.32,2.65C49.19,65.56,49.41,65.02,49.22,64.73z"/>
					<path class="st13" d="M39.73,83.1c-0.61-2.05-0.89-4.28-0.43-6.39c0.51-2.35,2.47-4.04,3.02-6.36c0.47-1.97-0.08-4.1-2.08-4.91
						c-1.11-0.45-2.33-0.5-3.43-0.95c-1.26-0.51-2.41-1.33-3.2-2.44c-0.3-0.43-1.04-0.02-0.81,0.46c1.08,2.19,2.72,3.53,5.08,4.16
						c1.07,0.28,2.64,0.48,3.1,1.68c0.42,1.07-0.08,2.28-0.6,3.2c-0.61,1.08-1.39,2.06-1.92,3.18c-0.43,0.91-0.75,1.91-0.92,2.9
						c-0.37,2.11,0.01,4.24,1.18,6.04C39.12,84.25,39.91,83.68,39.73,83.1z"/>
				</g>
				
					<linearGradient id="SVGID_00000013165291763686815150000002546816457914399139_" gradientUnits="userSpaceOnUse" x1="39.6682" y1="97.3009" x2="55.2897" y2="97.3009">
					<stop  offset="0" style="stop-color:#6A2152"/>
					<stop  offset="1" style="stop-color:#EA48AA"/>
				</linearGradient>
				<polygon style="fill:url(#SVGID_00000013165291763686815150000002546816457914399139_);" points="49.66,86.99 39.67,102.51 
					43.06,107.61 55.29,91.34 				"/>
				
					<linearGradient id="SVGID_00000168814086366995166550000002931792232480377255_" gradientUnits="userSpaceOnUse" x1="132.0023" y1="141.4044" x2="74.6675" y2="78.5718">
					<stop  offset="0" style="stop-color:#E58E97"/>
					<stop  offset="1" style="stop-color:#F4BBA7"/>
				</linearGradient>
				<path style="fill:url(#SVGID_00000168814086366995166550000002931792232480377255_);" d="M172.44,115.75
					c0,0-47.24,21.69-81.18,27.18l11.29,36.17l98.6-20.44L172.44,115.75z"/>
				
					<linearGradient id="SVGID_00000061468055581262678220000003995935808567717561_" gradientUnits="userSpaceOnUse" x1="108.4636" y1="162.8834" x2="51.1288" y2="100.0509">
					<stop  offset="0" style="stop-color:#E58E97"/>
					<stop  offset="1" style="stop-color:#F4BBA7"/>
				</linearGradient>
				<path style="fill:url(#SVGID_00000061468055581262678220000003995935808567717561_);" d="M102.55,179.1
					c-32.85-15.05-57.18-68.03-57.18-68.03l11.67-17.04l71.83,60.42L102.55,179.1z"/>
				
					<linearGradient id="SVGID_00000059988884360807383070000008213779589158570154_" gradientUnits="userSpaceOnUse" x1="228.5972" y1="228.3934" x2="333.0331" y2="228.3934">
					<stop  offset="0" style="stop-color:#6A2152"/>
					<stop  offset="1" style="stop-color:#EA48AA"/>
				</linearGradient>
				<path style="fill:url(#SVGID_00000059988884360807383070000008213779589158570154_);" d="M228.6,207.35
					c0,0,8.26,46.83,26.61,91.3l77.83-78.23l-35.22-62.3L228.6,207.35z"/>
				
					<linearGradient id="SVGID_00000123419436271327916320000012699911682527710374_" gradientUnits="userSpaceOnUse" x1="169.0386" y1="61.4458" x2="447.1959" y2="428.7557">
					<stop  offset="0" style="stop-color:#8A4CA8"/>
					<stop  offset="1" style="stop-color:#B36DA8"/>
				</linearGradient>
				<path style="fill:url(#SVGID_00000123419436271327916320000012699911682527710374_);" d="M307.93,171.61
					c-12.45-26.22-29.1-49.08-44.31-66.87l12.77-3.37l7.79-1.68l2.2-4.83l-4.99-37.9c0,0-0.5,0.01-6.01,1.17
					c-1.58,0.32-3.14,0.68-4.73,1.03c-33.06,7.67-45.27,8.26-45.27,8.26c-6.81,3.48-23.25,13.01-30.34,20.16
					c-1.46,1.48-0.55,3.58-1.85,4.94c-0.3,0.3-12.22,13.58-12.22,13.58l-9.29,9.93l-47.5,17.43l15.42,41.92l49.29-11.55
					c2.56,2.75,5.28,5.73,8.17,8.98c10.34,11.64,20.93,27.61,30.33,49.53c0.85,1.99,1.67,4,2.5,6.06l84.24-42.6
					C312.2,180.99,310.14,176.25,307.93,171.61z"/>
				<path class="st3" d="M276.38,101.37l10.49-2.34l-5.49-42.07c0,0-0.5,0.01-6.01,1.17c-1.58,0.32-3.14,0.68-4.73,1.03
					L276.38,101.37z"/>
				<path class="st0" d="M196.85,85.58c0.79,0.18,1.58,0.41,2.31,0.68c5.94,2.11,10.49,6.81,12.55,12.57
					c0.6,1.67,0.99,3.44,1.12,5.25c0.12,1.47,0.07,2.99-0.13,4.51c-1.55,11.34-12.01,19.27-23.34,17.72
					c-7.35-1.01-13.26-5.75-16.08-12.05l9.51-10.16L196.85,85.58z"/>
				<g>
					<g>
						<g>
							
								<linearGradient id="SVGID_00000055682221888982132670000005796890355433920183_" gradientUnits="userSpaceOnUse" x1="165.7391" y1="94.0764" x2="204.2514" y2="94.0764">
								<stop  offset="0" style="stop-color:#E58E97"/>
								<stop  offset="1" style="stop-color:#F4BBA7"/>
							</linearGradient>
							<path style="fill:url(#SVGID_00000055682221888982132670000005796890355433920183_);" d="M165.74,90.48l5.62,8.29l6.46,9.53
								l3.26,5.07c3.6,5.6,10.93,7.42,16.74,4.17l0,0c5.85-3.28,8.1-10.56,5.12-16.57L187.09,69L165.74,90.48z"/>
						</g>
						<g>
							<path class="st13" d="M170.2,97.09l6.45,9.49c11.61-3.27,12.65-17.65,8.84-28.64C179.95,79.62,171.48,95.04,170.2,97.09z"/>
						</g>
					</g>
				</g>
				<g>
					<g>
						<g>
							<g>
								<g>
									
										<linearGradient id="SVGID_00000090262535302968040520000009977906192055957687_" gradientUnits="userSpaceOnUse" x1="142.1583" y1="75.3755" x2="194.1855" y2="75.3755">
										<stop  offset="0" style="stop-color:#E58E97"/>
										<stop  offset="1" style="stop-color:#F4BBA7"/>
									</linearGradient>
									<path style="fill:url(#SVGID_00000090262535302968040520000009977906192055957687_);" d="M147.04,92.13
										c3.12,5.96,8.57,10.96,15.14,12.38c9.1,1.98,18.49-3.23,24.33-10.49c3.34-4.13,5.68-9.12,6.83-14.3
										c2.55-11.24-0.48-23.43-11.04-30.02c-7.22-4.51-19.98-5.36-28.82-1.17c-3.47,1.63-6.34,4.04-8.03,7.32
										C140.09,66.27,141.75,82.06,147.04,92.13z"/>
								</g>
								
									<linearGradient id="SVGID_00000000932299084872168620000006200799308357719731_" gradientUnits="userSpaceOnUse" x1="182.6734" y1="31.3858" x2="179.5263" y2="57.1178">
									<stop  offset="0" style="stop-color:#75FAFC"/>
									<stop  offset="1" style="stop-color:#2D50AC"/>
								</linearGradient>
								<path style="fill:url(#SVGID_00000000932299084872168620000006200799308357719731_);" d="M187.95,69.28
									c-9.91,4.07-4.93-16.01-4.93-16.01s-20.28,13.93-21.26-3.08l4.13-6.08c0,0,33.71-5.1,30.19,29.89l-5.53,1.28L187.95,69.28z"
									/>
								<g>
									<path class="st22" d="M150.5,76.2c-0.02,1.42,0.89,2.63,2.04,2.7c1.15,0.07,2.1-1.03,2.12-2.45
										c0.02-1.42-0.89-2.63-2.04-2.7C151.47,73.68,150.52,74.78,150.5,76.2z"/>
								</g>
								<g>
									<path class="st22" d="M167.68,75.25c-0.02,1.42,0.89,2.63,2.04,2.7c1.15,0.07,2.1-1.03,2.12-2.45
										c0.02-1.42-0.89-2.63-2.04-2.7C168.65,72.73,167.7,73.82,167.68,75.25z"/>
								</g>
								<g>
									<path class="st13" d="M155.5,81.34c0.8-3.52,1.78-6.97,2.8-10.43c0.1-0.34,0.62-0.25,0.54,0.1
										c-0.6,2.88-1.22,5.72-1.94,8.57c-0.35,1.38-0.91,2.89-0.72,4.33c0.16,1.2,1.09,1.98,2.08,2.52
										c0.26,0.14,0.27,0.56-0.04,0.65c-1.07,0.33-2.17-0.47-2.62-1.41C154.96,84.32,155.18,82.74,155.5,81.34z"/>
								</g>
								<path class="st22" d="M189.12,82.24l4.42-8.63l-1.07-0.81c-1.4-1.2-2.91-2.38-4.52-3.51
									C186.1,75.72,189.12,82.24,189.12,82.24z"/>
								
									<linearGradient id="SVGID_00000011724171865846919850000007838500070094163893_" gradientUnits="userSpaceOnUse" x1="174.3587" y1="30.3688" x2="171.2116" y2="56.1008">
									<stop  offset="0" style="stop-color:#75FAFC"/>
									<stop  offset="1" style="stop-color:#2D50AC"/>
								</linearGradient>
								<path style="fill:url(#SVGID_00000011724171865846919850000007838500070094163893_);" d="M161.76,50.2
									c-11.99,10.8-16.31,5.66-16.31,5.66l-2.72,8.45c-11.94-5.08-8.17-33.27,12.1-23.05c-0.35-14.81,25.07-11.85,32.49,5.04
									c14.35-5.55,30.7,13.32,8.11,31.61c0,0-0.68-30.21-16.95-31.2C171.44,46.27,161.76,50.2,161.76,50.2z"/>
								<g>
									
										<linearGradient id="SVGID_00000156580979950267719080000017999976086472534440_" gradientUnits="userSpaceOnUse" x1="189.4328" y1="78.3076" x2="205.2341" y2="78.3076">
										<stop  offset="0" style="stop-color:#E58E97"/>
										<stop  offset="1" style="stop-color:#F4BBA7"/>
									</linearGradient>
									<path style="fill:url(#SVGID_00000156580979950267719080000017999976086472534440_);" d="M195.64,70.35
										c2.08-1.34,4.98-1.7,6.99-0.24c1.67,1.21,2.37,3.38,2.55,5.43c0.23,2.65-0.27,5.41-1.7,7.66
										c-1.42,2.25-3.82,3.93-6.47,4.21c-2.65,0.28-5.47-0.98-6.8-3.28C187.66,79.71,191.9,72.76,195.64,70.35z"/>
								</g>
								<g>
									<path class="st22" d="M192.94,81.7c0.69-1.41,1.74-2.68,3.07-3.54c0.61-0.39,1.23-0.74,1.91-0.99
										c0.68-0.25,1.41-0.36,2.11-0.54c0.46-0.12,0.75,0.61,0.29,0.79c-0.3,0.12-0.57,0.25-0.84,0.44
										c-0.26,0.19-0.51,0.41-0.75,0.62c-0.25,0.21-0.5,0.44-0.75,0.66c-0.12,0.11-0.24,0.22-0.35,0.34
										c-0.11,0.12-0.28,0.26-0.35,0.4c0.02-0.03,0.05-0.06,0.07-0.09c-0.04,0.04-0.07,0.09-0.11,0.13
										c-0.09,0.11-0.18,0.23-0.28,0.34c-0.06,0.07-0.12,0.13-0.18,0.2c-0.01,0.01-0.01,0.01-0.01,0.01
										c-0.24,0.23-0.42,0.56-0.6,0.83c-0.37,0.57-0.72,1.15-1,1.77c-0.13,0.29-0.54,0.53-0.83,0.59
										c-0.31,0.07-0.71,0.02-0.98-0.16C192.73,83.08,192.61,82.36,192.94,81.7z"/>
								</g>
							</g>
						</g>
						<g>
							<path class="st22" d="M144.27,62.23c-3.11,5.58,11.36,3.7,9.96-0.33C153.19,58.89,145.57,59.89,144.27,62.23z"/>
						</g>
						<g>
							<path class="st22" d="M178.51,63.85c-0.17-2.87-7.16-3.15-8.89-2.06C164.78,64.84,178.84,69.39,178.51,63.85z"/>
						</g>
					</g>
					<g>
						<path class="st0" d="M172.21,84.93c-0.6-0.8-8.42,2.56-8.81,3.88c-0.25,0.84,2.81,3.34,6.12,1.82
							C172.25,89.37,172.91,85.87,172.21,84.93z"/>
					</g>
				</g>
				<path class="st3" d="M168.28,136.19c4.1,6.82,8.62,13.37,13.64,19.54c2.52,3.09,5.14,6.11,7.86,9.02
					c1.36,1.46,2.73,2.91,4.12,4.33c1.41,1.43,2.83,3.06,4.71,3.85c1.29,0.54,2.9-0.67,2.07-2.08c-0.99-1.68-2.57-2.84-4.04-4.09
					c-1.44-1.23-2.86-2.47-4.24-3.76c-2.9-2.73-5.69-5.56-8.36-8.52c-5.34-5.93-10.24-12.27-14.57-18.98
					C169,134.76,167.82,135.42,168.28,136.19z"/>
				<path class="st3" d="M255.87,133.11c-2.87,3.95-5.56,7.97-8.66,11.75c-3.22,3.94-6.64,7.71-10.28,11.26
					c-7.02,6.87-14.78,13.09-23.1,18.31c-0.73,0.46,0.08,1.5,0.8,1.06c8.64-5.21,16.71-11.17,24.05-18.11
					c7.12-6.73,14.14-14.3,19.31-22.66C258.87,133.3,256.9,131.69,255.87,133.11z"/>
				<path class="st3" d="M260.96,166.02c-3.52,2.13-6.79,4.53-10.46,6.43c-3.69,1.91-7.5,3.57-11.43,4.94
					c-7.83,2.74-16.04,4.4-24.32,4.95c-1.23,0.08-0.98,1.93,0.23,1.89c8.54-0.29,16.96-1.7,25.12-4.26
					c4.06-1.27,8.05-2.8,11.91-4.58c3.81-1.77,7.96-3.69,11.35-6.2C265.45,167.63,263.09,164.72,260.96,166.02z"/>
				<path class="st3" d="M248.09,91.61c-11.97,4.11-24.34,4.83-36.21-0.17c-0.81-0.34-1.31,0.89-0.52,1.25
					c9.14,4.21,19.89,6.25,30.06,4.95c-0.05,0.21,0,0.44,0.22,0.61c22.17,17.67,39.34,40.97,50.73,67.13
					c3.23,7.41,5.88,15,8.21,22.75c0.64,2.12,3.68,0.8,3.12-1.28c-7.54-27.93-23.27-53.13-43.17-73.58
					c-5.55-5.7-11.55-10.94-17.82-15.8c2.39-0.38,4.75-0.94,7.04-1.71C252.48,94.84,250.8,90.68,248.09,91.61z"/>
				<path class="st3" d="M307.93,171.61c2.21,4.63,4.28,9.37,6.18,14.19l-84.24,42.6c-0.82-2.06-1.65-4.08-2.5-6.06L307.93,171.61z"
					/>
				<polygon class="st0" points="139.59,175.38 151.95,172.48 132.63,129.95 124.16,133.46 				"/>
				<g>
					<path class="st0" d="M179.24,80.26l-35.68,4.47c-7.01,0.87-13.44-4.44-14.36-11.86v0c-0.92-7.42,4.02-14.14,11.03-15.01
						l35.68-4.47c7.01-0.87,13.44,4.44,14.36,11.86l0,0C191.18,72.67,186.25,79.39,179.24,80.26z"/>
					<path class="st3" d="M168.44,55.79L168.44,55.79c5.54,0,10.3,4.64,11.06,10.8c0.4,3.25-0.36,6.43-2.14,8.97
						c-1.75,2.5-4.29,4.07-7.14,4.42l-27.38,3.44c-0.4,0.05-0.81,0.07-1.21,0.07c-5.54,0-10.3-4.64-11.06-10.8
						c-0.83-6.65,3.34-12.66,9.28-13.4l27.38-3.44C167.63,55.81,168.04,55.79,168.44,55.79 M168.44,54.4
						c-0.46,0-0.92,0.03-1.38,0.09l-27.38,3.44c-6.71,0.83-11.41,7.52-10.49,14.95l0,0c0.86,6.91,6.28,12.01,12.44,12.01
						c0.46,0,0.92-0.03,1.38-0.09l27.38-3.44c6.71-0.83,11.41-7.52,10.49-14.95C180.02,59.51,174.6,54.4,168.44,54.4L168.44,54.4z"
						/>
					<path class="st2" d="M142.95,79.83l11.39-1.43l3.8-0.48l1.62-0.2l6.65-0.84l0.36-0.04c0.49-0.06,0.98-0.16,1.44-0.3
						c3.95-1.19,6.58-5.08,6.06-9.32c-0.59-4.73-4.89-8.09-9.62-7.5l-12.06,1.52l-6.64,0.84l-1.63,0.2l-3.49,0.44
						c-0.1,0.01-0.2,0.03-0.3,0.05c-0.4,0.05-0.78,0.14-1.14,0.25c-3.95,1.19-6.58,5.08-6.06,9.32
						C133.92,77.06,138.22,80.42,142.95,79.83z"/>
					<g>
						<polygon class="st0" points="144.75,60.91 160.68,78.94 168.34,77.97 152.41,59.95 						"/>
						<path class="st0" d="M138.51,61.71l15.92,18.01l4.38-0.55l-15.93-18.02l-4.03,0.51C138.74,61.66,138.62,61.68,138.51,61.71z"
							/>
					</g>
					
						<linearGradient id="SVGID_00000006686088648646822580000004417437276795352496_" gradientUnits="userSpaceOnUse" x1="160.1557" y1="389.146" x2="155.2728" y2="190.5723">
						<stop  offset="0" style="stop-color:#6A2152"/>
						<stop  offset="1" style="stop-color:#EA48AA"/>
					</linearGradient>
					<path style="fill:url(#SVGID_00000006686088648646822580000004417437276795352496_);" d="M142.68,73.22l19.79-2.5
						c1.21-0.15,2.07-1.26,1.91-2.47l0,0c-0.15-1.21-1.26-2.07-2.47-1.91l-19.79,2.5c-1.21,0.15-2.07,1.26-1.91,2.47l0,0
						C140.37,72.52,141.47,73.38,142.68,73.22z"/>
				</g>
				<g>
					<path class="st0" d="M193.4,92.32l7.8-0.4c4.91-0.25,8.69-4.44,8.43-9.35l-0.51-9.95c-0.25-4.91-4.44-8.69-9.35-8.43l-7.8,0.4
						c-4.91,0.25-8.69,4.44-8.43,9.35l0.51,9.95C184.31,88.8,188.49,92.57,193.4,92.32z"/>
					<g>
						<path class="st0" d="M197.03,91.43c-3.24,0-5.9-2.54-6.07-5.77l-0.73-14.19c-0.08-1.62,0.47-3.18,1.56-4.39
							c1.09-1.21,2.58-1.92,4.2-2l5.94-0.31c0.11-0.01,0.21-0.01,0.32-0.01c3.24,0,5.9,2.53,6.07,5.77l0.73,14.19
							c0.08,1.62-0.47,3.18-1.56,4.39c-1.09,1.21-2.58,1.92-4.2,2l-5.94,0.31C197.25,91.43,197.14,91.43,197.03,91.43z"/>
						<path class="st3" d="M202.25,65.46c2.87,0,5.23,2.25,5.38,5.11l0.73,14.19c0.07,1.44-0.42,2.82-1.38,3.89
							c-0.96,1.07-2.29,1.7-3.73,1.77l-5.94,0.31c-0.1,0-0.19,0.01-0.28,0.01c-2.87,0-5.23-2.25-5.38-5.11l-0.73-14.19
							c-0.15-2.97,2.14-5.51,5.11-5.66l5.94-0.31C202.06,65.46,202.16,65.46,202.25,65.46 M202.25,64.07c-0.12,0-0.24,0-0.35,0.01
							l-5.94,0.31c-3.74,0.19-6.61,3.38-6.42,7.12l0.73,14.19c0.19,3.62,3.18,6.43,6.76,6.43c0.12,0,0.24,0,0.35-0.01l5.94-0.31
							c3.74-0.19,6.61-3.38,6.42-7.12l-0.73-14.19C208.83,66.88,205.84,64.07,202.25,64.07L202.25,64.07z"/>
					</g>
					<path class="st2" d="M200.69,69.5l-2.97,0.15c-1.87,0.1-3.31,1.69-3.21,3.56l0.53,10.26c0.1,1.87,1.69,3.31,3.56,3.21
						l2.97-0.15c1.87-0.1,3.31-1.69,3.21-3.56l-0.53-10.26C204.15,70.84,202.56,69.41,200.69,69.5z"/>
				</g>
			</g>
		</g>
	</g>
</g>
</svg>
